<?xml version="1.0" encoding="UTF-8" standalone="no"?>
<!DOCTYPE svg PUBLIC "-//W3C//DTD SVG 1.1//EN"
 "http://www.w3.org/Graphics/SVG/1.1/DTD/svg11.dtd">
<!-- Generated by graphviz version 2.43.0 (0)
 -->
<!-- Title: Diagram Pages: 1 -->
<svg width="1280pt" height="218pt"
 viewBox="0.00 0.00 1279.53 218.00" xmlns="http://www.w3.org/2000/svg" xmlns:xlink="http://www.w3.org/1999/xlink">
<g id="graph0" class="graph" transform="scale(1 1) rotate(0) translate(4 214)">
<title>Diagram</title>
<polygon fill="white" stroke="transparent" points="-4,4 -4,-214 1275.53,-214 1275.53,4 -4,4"/>
<!-- 10.81.23.4 -->
<g id="node1" class="node">
<title>10.81.23.4</title>
<ellipse fill="none" stroke="black" cx="461.84" cy="-192" rx="60.39" ry="18"/>
<text text-anchor="middle" x="461.84" y="-188.3" font-family="Times,serif" font-size="14.00">10.81.23.4</text>
</g>
<!-- 185.199.108.133 -->
<g id="node2" class="node">
<title>185.199.108.133</title>
<ellipse fill="none" stroke="black" cx="647.84" cy="-105" rx="89.88" ry="18"/>
<text text-anchor="middle" x="647.84" y="-101.3" font-family="Times,serif" font-size="14.00">185.199.108.133</text>
</g>
<!-- 10.81.23.4&#45;&gt;185.199.108.133 -->
<g id="edge1" class="edge">
<title>10.81.23.4&#45;&gt;185.199.108.133</title>
<path fill="none" stroke="black" d="M493.39,-176.58C523.9,-162.64 570.37,-141.4 604.37,-125.86"/>
<polygon fill="black" stroke="black" points="605.97,-128.98 613.61,-121.64 603.06,-122.62 605.97,-128.98"/>
<text text-anchor="middle" x="580.84" y="-144.8" font-family="Times,serif" font-size="14.00">443</text>
</g>
<!-- 74.125.133.188 -->
<g id="node3" class="node">
<title>74.125.133.188</title>
<ellipse fill="none" stroke="black" cx="83.84" cy="-105" rx="83.69" ry="18"/>
<text text-anchor="middle" x="83.84" y="-101.3" font-family="Times,serif" font-size="14.00">74.125.133.188</text>
</g>
<!-- 10.81.23.4&#45;&gt;74.125.133.188 -->
<g id="edge2" class="edge">
<title>10.81.23.4&#45;&gt;74.125.133.188</title>
<path fill="none" stroke="black" d="M415.11,-180.49C348.38,-165.49 225.49,-137.85 149.6,-120.79"/>
<polygon fill="black" stroke="black" points="150.19,-117.33 139.67,-118.55 148.66,-124.16 150.19,-117.33"/>
<text text-anchor="middle" x="314.34" y="-144.8" font-family="Times,serif" font-size="14.00">5228</text>
</g>
<!-- 135.181.55.48 -->
<g id="node4" class="node">
<title>135.181.55.48</title>
<ellipse fill="none" stroke="black" cx="833.84" cy="-105" rx="77.99" ry="18"/>
<text text-anchor="middle" x="833.84" y="-101.3" font-family="Times,serif" font-size="14.00">135.181.55.48</text>
</g>
<!-- 10.81.23.4&#45;&gt;135.181.55.48 -->
<g id="edge3" class="edge">
<title>10.81.23.4&#45;&gt;135.181.55.48</title>
<path fill="none" stroke="black" d="M508.2,-180.41C574.33,-165.3 695.96,-137.51 770.4,-120.5"/>
<polygon fill="black" stroke="black" points="771.61,-123.81 780.58,-118.17 770.05,-116.99 771.61,-123.81"/>
<text text-anchor="middle" x="684.84" y="-144.8" font-family="Times,serif" font-size="14.00">443</text>
</g>
<!-- 142.250.181.229 -->
<g id="node5" class="node">
<title>142.250.181.229</title>
<ellipse fill="none" stroke="black" cx="275.84" cy="-105" rx="89.88" ry="18"/>
<text text-anchor="middle" x="275.84" y="-101.3" font-family="Times,serif" font-size="14.00">142.250.181.229</text>
</g>
<!-- 10.81.23.4&#45;&gt;142.250.181.229 -->
<g id="edge4" class="edge">
<title>10.81.23.4&#45;&gt;142.250.181.229</title>
<path fill="none" stroke="black" d="M430.29,-176.58C399.78,-162.64 353.31,-141.4 319.31,-125.86"/>
<polygon fill="black" stroke="black" points="320.63,-122.62 310.08,-121.64 317.72,-128.98 320.63,-122.62"/>
<text text-anchor="middle" x="394.84" y="-144.8" font-family="Times,serif" font-size="14.00">443</text>
</g>
<!-- 35.240.24.169 -->
<g id="node6" class="node">
<title>35.240.24.169</title>
<ellipse fill="none" stroke="black" cx="461.84" cy="-105" rx="77.99" ry="18"/>
<text text-anchor="middle" x="461.84" y="-101.3" font-family="Times,serif" font-size="14.00">35.240.24.169</text>
</g>
<!-- 10.81.23.4&#45;&gt;35.240.24.169 -->
<g id="edge5" class="edge">
<title>10.81.23.4&#45;&gt;35.240.24.169</title>
<path fill="none" stroke="black" d="M461.84,-173.8C461.84,-162.16 461.84,-146.55 461.84,-133.24"/>
<polygon fill="black" stroke="black" points="465.34,-133.18 461.84,-123.18 458.34,-133.18 465.34,-133.18"/>
<text text-anchor="middle" x="475.84" y="-144.8" font-family="Times,serif" font-size="14.00">443</text>
</g>
<!-- 192.168.1.24 -->
<g id="node7" class="node">
<title>192.168.1.24</title>
<ellipse fill="none" stroke="black" cx="1001.84" cy="-105" rx="72.29" ry="18"/>
<text text-anchor="middle" x="1001.84" y="-101.3" font-family="Times,serif" font-size="14.00">192.168.1.24</text>
</g>
<!-- 197.253.8.146 -->
<g id="node8" class="node">
<title>197.253.8.146</title>
<ellipse fill="none" stroke="black" cx="1001.84" cy="-18" rx="77.99" ry="18"/>
<text text-anchor="middle" x="1001.84" y="-14.3" font-family="Times,serif" font-size="14.00">197.253.8.146</text>
</g>
<!-- 192.168.1.24&#45;&gt;197.253.8.146 -->
<g id="edge6" class="edge">
<title>192.168.1.24&#45;&gt;197.253.8.146</title>
<path fill="none" stroke="black" d="M1001.84,-86.8C1001.84,-75.16 1001.84,-59.55 1001.84,-46.24"/>
<polygon fill="black" stroke="black" points="1005.34,-46.18 1001.84,-36.18 998.34,-46.18 1005.34,-46.18"/>
<text text-anchor="middle" x="1020.34" y="-57.8" font-family="Times,serif" font-size="14.00">8443</text>
</g>
<!-- 192.168.1.5 -->
<g id="node9" class="node">
<title>192.168.1.5</title>
<ellipse fill="none" stroke="black" cx="1001.84" cy="-192" rx="66.09" ry="18"/>
<text text-anchor="middle" x="1001.84" y="-188.3" font-family="Times,serif" font-size="14.00">192.168.1.5</text>
</g>
<!-- 192.168.1.5&#45;&gt;192.168.1.24 -->
<g id="edge7" class="edge">
<title>192.168.1.5&#45;&gt;192.168.1.24</title>
<path fill="none" stroke="black" d="M1001.84,-173.8C1001.84,-162.16 1001.84,-146.55 1001.84,-133.24"/>
<polygon fill="black" stroke="black" points="1005.34,-133.18 1001.84,-123.18 998.34,-133.18 1005.34,-133.18"/>
<text text-anchor="middle" x="1015.84" y="-144.8" font-family="Times,serif" font-size="14.00">994</text>
</g>
<!-- 10.81.234.4 -->
<g id="node10" class="node">
<title>10.81.234.4</title>
<ellipse fill="none" stroke="black" cx="833.84" cy="-192" rx="66.09" ry="18"/>
<text text-anchor="middle" x="833.84" y="-188.3" font-family="Times,serif" font-size="14.00">10.81.234.4</text>
</g>
<!-- 10.81.234.4&#45;&gt;135.181.55.48 -->
<g id="edge8" class="edge">
<title>10.81.234.4&#45;&gt;135.181.55.48</title>
<path fill="none" stroke="black" d="M833.84,-173.8C833.84,-162.16 833.84,-146.55 833.84,-133.24"/>
<polygon fill="black" stroke="black" points="837.34,-133.18 833.84,-123.18 830.34,-133.18 837.34,-133.18"/>
<text text-anchor="middle" x="847.84" y="-144.8" font-family="Times,serif" font-size="14.00">443</text>
</g>
<!-- 178.521.164.180 -->
<g id="node11" class="node">
<title>178.521.164.180</title>
<ellipse fill="none" stroke="black" cx="1181.84" cy="-192" rx="89.88" ry="18"/>
<text text-anchor="middle" x="1181.84" y="-188.3" font-family="Times,serif" font-size="14.00">178.521.164.180</text>
</g>
<!-- 172.230.200.460 -->
<g id="node12" class="node">
<title>172.230.200.460</title>
<ellipse fill="none" stroke="black" cx="1181.84" cy="-105" rx="89.88" ry="18"/>
<text text-anchor="middle" x="1181.84" y="-101.3" font-family="Times,serif" font-size="14.00">172.230.200.460</text>
</g>
<!-- 178.521.164.180&#45;&gt;172.230.200.460 -->
<g id="edge9" class="edge">
<title>178.521.164.180&#45;&gt;172.230.200.460</title>
<path fill="none" stroke="black" d="M1181.84,-173.8C1181.84,-162.16 1181.84,-146.55 1181.84,-133.24"/>
<polygon fill="black" stroke="black" points="1185.34,-133.18 1181.84,-123.18 1178.34,-133.18 1185.34,-133.18"/>
<text text-anchor="middle" x="1195.84" y="-144.8" font-family="Times,serif" font-size="14.00">443</text>
</g>
</g>
</svg>
